# xmcd
#
# Track frame offsets:
#	150
#	38935
#	73033
#	109411
#	143396
#	171386
#	200530
#	238657
#	273657
#	308663
#
# Disc length: 4570 seconds
#
# Revision: 0
# Processed by: cddbd v1.5.1PL2 Copyright (c) Steve Scherf et al.
# Submitted via: audiograbber 1.83.01
#
DISCID=9311d80a
DTITLE=Various Artist - 2003-01  PromoUK CD1
DYEAR=2003
DGENRE=Trance
TTITLE0=Chicane - Love On The Run (Chicane Mix) [135.1bpm]
TTITLE1=Lange Feat. Leah - Don't Think It (Feel It) (Cosmic Man Remix) [140.1bp
TTITLE1=m]
TTITLE2=Chill Factor - Crowd Breezer (139.6bpm]
TTITLE3=Steffenson - Where Dreams Come True (Original Mix) [138.1bpm]
TTITLE4=Syntone - Can't Believe It (Silverblue Remix) [140.1bpm]
TTITLE5=Infextious - Let Me Fly (Infextious Extended Mix) [140bpm]
TTITLE6=Katoi - Touch You (Ralphie B Remix) [138.1bpm]
TTITLE7=Insider - Unification (Original Mix) [142.6bpm]
TTITLE8=Base Graffiti - Race Logic (Original Mix) [141bpm]
TTITLE9=Paul Maddox vs. DJ GRH - New York, New York (OD 404 Remix) [140.1bpm]
EXTD=
EXTT0=
EXTT1=
EXTT2=
EXTT3=
EXTT4=
EXTT5=
EXTT6=
EXTT7=
EXTT8=
EXTT9=
PLAYORDER=
